<mxfile host="app.diagrams.net" modified="2021-01-20T08:17:54.456Z" agent="5.0 (Windows NT 10.0; Win64; x64) AppleWebKit/537.36 (KHTML, like Gecko) Chrome/87.0.4280.141 Safari/537.36" etag="oXhtiOjsRe7tw1-sCy-B" version="14.2.5" type="github">
  <diagram id="C5RBs43oDa-KdzZeNtuy" name="Page-1">
    <mxGraphModel dx="1422" dy="762" grid="1" gridSize="10" guides="1" tooltips="1" connect="1" arrows="1" fold="1" page="1" pageScale="1" pageWidth="827" pageHeight="1169" math="0" shadow="0">
      <root>
        <mxCell id="WIyWlLk6GJQsqaUBKTNV-0" />
        <mxCell id="WIyWlLk6GJQsqaUBKTNV-1" parent="WIyWlLk6GJQsqaUBKTNV-0" />
        <mxCell id="UZ3TIBLTQS_dJuXPeL5W-3" style="edgeStyle=orthogonalEdgeStyle;rounded=0;orthogonalLoop=1;jettySize=auto;html=1;exitX=0.5;exitY=1;exitDx=0;exitDy=0;exitPerimeter=0;entryX=0.5;entryY=0;entryDx=0;entryDy=0;" parent="WIyWlLk6GJQsqaUBKTNV-1" source="UZ3TIBLTQS_dJuXPeL5W-0" target="UZ3TIBLTQS_dJuXPeL5W-1" edge="1">
          <mxGeometry relative="1" as="geometry" />
        </mxCell>
        <mxCell id="UZ3TIBLTQS_dJuXPeL5W-0" value="开始" style="strokeWidth=2;html=1;shape=mxgraph.flowchart.start_2;whiteSpace=wrap;" parent="WIyWlLk6GJQsqaUBKTNV-1" vertex="1">
          <mxGeometry x="310" y="30" width="70" height="40" as="geometry" />
        </mxCell>
        <mxCell id="UZ3TIBLTQS_dJuXPeL5W-6" style="edgeStyle=orthogonalEdgeStyle;rounded=0;orthogonalLoop=1;jettySize=auto;html=1;exitX=0.5;exitY=1;exitDx=0;exitDy=0;entryX=0.5;entryY=0;entryDx=0;entryDy=0;" parent="WIyWlLk6GJQsqaUBKTNV-1" source="UZ3TIBLTQS_dJuXPeL5W-1" target="UZ3TIBLTQS_dJuXPeL5W-4" edge="1">
          <mxGeometry relative="1" as="geometry" />
        </mxCell>
        <mxCell id="UZ3TIBLTQS_dJuXPeL5W-1" value="从本地文件初始化TakerManager，PageManager，TaskGroup" style="rounded=1;whiteSpace=wrap;html=1;absoluteArcSize=1;arcSize=14;strokeWidth=2;" parent="WIyWlLk6GJQsqaUBKTNV-1" vertex="1">
          <mxGeometry x="300" y="100" width="100" height="100" as="geometry" />
        </mxCell>
        <mxCell id="UZ3TIBLTQS_dJuXPeL5W-7" style="edgeStyle=orthogonalEdgeStyle;rounded=0;orthogonalLoop=1;jettySize=auto;html=1;exitX=0.5;exitY=1;exitDx=0;exitDy=0;entryX=0.5;entryY=0;entryDx=0;entryDy=0;" parent="WIyWlLk6GJQsqaUBKTNV-1" source="UZ3TIBLTQS_dJuXPeL5W-4" target="UZ3TIBLTQS_dJuXPeL5W-5" edge="1">
          <mxGeometry relative="1" as="geometry" />
        </mxCell>
        <mxCell id="UZ3TIBLTQS_dJuXPeL5W-4" value="连接到外部服务" style="rounded=1;whiteSpace=wrap;html=1;absoluteArcSize=1;arcSize=14;strokeWidth=2;" parent="WIyWlLk6GJQsqaUBKTNV-1" vertex="1">
          <mxGeometry x="300" y="240" width="100" height="50" as="geometry" />
        </mxCell>
        <mxCell id="n7_p6rtyUHWvbLUiibL5-5" style="edgeStyle=orthogonalEdgeStyle;rounded=0;orthogonalLoop=1;jettySize=auto;html=1;exitX=0.5;exitY=1;exitDx=0;exitDy=0;entryX=0.5;entryY=0;entryDx=0;entryDy=0;" edge="1" parent="WIyWlLk6GJQsqaUBKTNV-1" source="UZ3TIBLTQS_dJuXPeL5W-5" target="n7_p6rtyUHWvbLUiibL5-4">
          <mxGeometry relative="1" as="geometry" />
        </mxCell>
        <mxCell id="UZ3TIBLTQS_dJuXPeL5W-5" value="启动TaskGroup分配任务工作线程" style="rounded=1;whiteSpace=wrap;html=1;absoluteArcSize=1;arcSize=14;strokeWidth=2;" parent="WIyWlLk6GJQsqaUBKTNV-1" vertex="1">
          <mxGeometry x="300" y="330" width="100" height="50" as="geometry" />
        </mxCell>
        <mxCell id="UZ3TIBLTQS_dJuXPeL5W-16" style="edgeStyle=orthogonalEdgeStyle;rounded=0;orthogonalLoop=1;jettySize=auto;html=1;exitX=0.5;exitY=1;exitDx=0;exitDy=0;entryX=0.5;entryY=0;entryDx=0;entryDy=0;" parent="WIyWlLk6GJQsqaUBKTNV-1" source="UZ3TIBLTQS_dJuXPeL5W-8" target="UZ3TIBLTQS_dJuXPeL5W-15" edge="1">
          <mxGeometry relative="1" as="geometry" />
        </mxCell>
        <mxCell id="UZ3TIBLTQS_dJuXPeL5W-8" value="根据PageID通过PageManager获得Page任务" style="rounded=1;whiteSpace=wrap;html=1;absoluteArcSize=1;arcSize=14;strokeWidth=2;" parent="WIyWlLk6GJQsqaUBKTNV-1" vertex="1">
          <mxGeometry x="300" y="520" width="100" height="70" as="geometry" />
        </mxCell>
        <mxCell id="UZ3TIBLTQS_dJuXPeL5W-13" value="" style="edgeStyle=orthogonalEdgeStyle;rounded=0;orthogonalLoop=1;jettySize=auto;html=1;" parent="WIyWlLk6GJQsqaUBKTNV-1" source="UZ3TIBLTQS_dJuXPeL5W-10" target="UZ3TIBLTQS_dJuXPeL5W-8" edge="1">
          <mxGeometry relative="1" as="geometry">
            <Array as="points">
              <mxPoint x="280" y="550" />
              <mxPoint x="280" y="550" />
            </Array>
          </mxGeometry>
        </mxCell>
        <mxCell id="UZ3TIBLTQS_dJuXPeL5W-10" value="PagesData" style="shape=parallelogram;html=1;strokeWidth=2;perimeter=parallelogramPerimeter;whiteSpace=wrap;rounded=1;arcSize=12;size=0.23;" parent="WIyWlLk6GJQsqaUBKTNV-1" vertex="1">
          <mxGeometry x="110" y="520" width="100" height="60" as="geometry" />
        </mxCell>
        <mxCell id="UZ3TIBLTQS_dJuXPeL5W-18" style="edgeStyle=orthogonalEdgeStyle;rounded=0;orthogonalLoop=1;jettySize=auto;html=1;exitX=0.5;exitY=1;exitDx=0;exitDy=0;entryX=0.5;entryY=0;entryDx=0;entryDy=0;entryPerimeter=0;" parent="WIyWlLk6GJQsqaUBKTNV-1" source="UZ3TIBLTQS_dJuXPeL5W-15" target="UZ3TIBLTQS_dJuXPeL5W-17" edge="1">
          <mxGeometry relative="1" as="geometry" />
        </mxCell>
        <mxCell id="UZ3TIBLTQS_dJuXPeL5W-15" value="尝试通过TakerManager获取可用Taker" style="rounded=1;whiteSpace=wrap;html=1;absoluteArcSize=1;arcSize=14;strokeWidth=2;" parent="WIyWlLk6GJQsqaUBKTNV-1" vertex="1">
          <mxGeometry x="300" y="630" width="100" height="70" as="geometry" />
        </mxCell>
        <mxCell id="UZ3TIBLTQS_dJuXPeL5W-19" style="edgeStyle=orthogonalEdgeStyle;rounded=0;orthogonalLoop=1;jettySize=auto;html=1;exitX=1;exitY=0.5;exitDx=0;exitDy=0;exitPerimeter=0;entryX=1;entryY=0.5;entryDx=0;entryDy=0;" parent="WIyWlLk6GJQsqaUBKTNV-1" source="UZ3TIBLTQS_dJuXPeL5W-17" target="UZ3TIBLTQS_dJuXPeL5W-15" edge="1">
          <mxGeometry relative="1" as="geometry">
            <Array as="points">
              <mxPoint x="470" y="775" />
              <mxPoint x="470" y="665" />
            </Array>
          </mxGeometry>
        </mxCell>
        <mxCell id="UZ3TIBLTQS_dJuXPeL5W-23" style="edgeStyle=orthogonalEdgeStyle;rounded=0;orthogonalLoop=1;jettySize=auto;html=1;exitX=0.5;exitY=1;exitDx=0;exitDy=0;exitPerimeter=0;entryX=0.5;entryY=0;entryDx=0;entryDy=0;" parent="WIyWlLk6GJQsqaUBKTNV-1" source="UZ3TIBLTQS_dJuXPeL5W-17" target="UZ3TIBLTQS_dJuXPeL5W-22" edge="1">
          <mxGeometry relative="1" as="geometry" />
        </mxCell>
        <mxCell id="UZ3TIBLTQS_dJuXPeL5W-17" value="是否拿到" style="strokeWidth=2;html=1;shape=mxgraph.flowchart.decision;whiteSpace=wrap;" parent="WIyWlLk6GJQsqaUBKTNV-1" vertex="1">
          <mxGeometry x="300" y="740" width="100" height="70" as="geometry" />
        </mxCell>
        <mxCell id="UZ3TIBLTQS_dJuXPeL5W-20" value="NO" style="text;html=1;strokeColor=none;fillColor=none;align=center;verticalAlign=middle;whiteSpace=wrap;rounded=0;" parent="WIyWlLk6GJQsqaUBKTNV-1" vertex="1">
          <mxGeometry x="414" y="750" width="40" height="20" as="geometry" />
        </mxCell>
        <mxCell id="n7_p6rtyUHWvbLUiibL5-3" style="edgeStyle=orthogonalEdgeStyle;rounded=0;orthogonalLoop=1;jettySize=auto;html=1;exitX=0.5;exitY=1;exitDx=0;exitDy=0;entryX=0.5;entryY=0;entryDx=0;entryDy=0;" edge="1" parent="WIyWlLk6GJQsqaUBKTNV-1" source="UZ3TIBLTQS_dJuXPeL5W-22" target="n7_p6rtyUHWvbLUiibL5-2">
          <mxGeometry relative="1" as="geometry" />
        </mxCell>
        <mxCell id="UZ3TIBLTQS_dJuXPeL5W-22" value="将Page任务分配给拿到的Taker执行数据采集活动" style="rounded=1;whiteSpace=wrap;html=1;absoluteArcSize=1;arcSize=14;strokeWidth=2;" parent="WIyWlLk6GJQsqaUBKTNV-1" vertex="1">
          <mxGeometry x="300" y="870" width="100" height="70" as="geometry" />
        </mxCell>
        <mxCell id="UZ3TIBLTQS_dJuXPeL5W-24" value="YES" style="text;html=1;strokeColor=none;fillColor=none;align=center;verticalAlign=middle;whiteSpace=wrap;rounded=0;" parent="WIyWlLk6GJQsqaUBKTNV-1" vertex="1">
          <mxGeometry x="350" y="820" width="40" height="20" as="geometry" />
        </mxCell>
        <mxCell id="n7_p6rtyUHWvbLUiibL5-1" style="edgeStyle=orthogonalEdgeStyle;rounded=0;orthogonalLoop=1;jettySize=auto;html=1;exitX=1;exitY=0.5;exitDx=0;exitDy=0;" edge="1" parent="WIyWlLk6GJQsqaUBKTNV-1" source="n7_p6rtyUHWvbLUiibL5-0" target="UZ3TIBLTQS_dJuXPeL5W-15">
          <mxGeometry relative="1" as="geometry" />
        </mxCell>
        <mxCell id="n7_p6rtyUHWvbLUiibL5-0" value="TakersData" style="shape=parallelogram;html=1;strokeWidth=2;perimeter=parallelogramPerimeter;whiteSpace=wrap;rounded=1;arcSize=12;size=0.23;" vertex="1" parent="WIyWlLk6GJQsqaUBKTNV-1">
          <mxGeometry x="100" y="635" width="100" height="60" as="geometry" />
        </mxCell>
        <mxCell id="n7_p6rtyUHWvbLUiibL5-7" style="edgeStyle=orthogonalEdgeStyle;rounded=0;orthogonalLoop=1;jettySize=auto;html=1;exitX=1;exitY=0.5;exitDx=0;exitDy=0;entryX=1;entryY=0.5;entryDx=0;entryDy=0;" edge="1" parent="WIyWlLk6GJQsqaUBKTNV-1" source="n7_p6rtyUHWvbLUiibL5-2" target="n7_p6rtyUHWvbLUiibL5-4">
          <mxGeometry relative="1" as="geometry">
            <Array as="points">
              <mxPoint x="490" y="995" />
              <mxPoint x="490" y="445" />
            </Array>
          </mxGeometry>
        </mxCell>
        <mxCell id="n7_p6rtyUHWvbLUiibL5-2" value="等待任务间隔时间" style="rounded=1;whiteSpace=wrap;html=1;absoluteArcSize=1;arcSize=14;strokeWidth=2;" vertex="1" parent="WIyWlLk6GJQsqaUBKTNV-1">
          <mxGeometry x="300" y="970" width="100" height="50" as="geometry" />
        </mxCell>
        <mxCell id="n7_p6rtyUHWvbLUiibL5-6" style="edgeStyle=orthogonalEdgeStyle;rounded=0;orthogonalLoop=1;jettySize=auto;html=1;exitX=0.5;exitY=1;exitDx=0;exitDy=0;entryX=0.5;entryY=0;entryDx=0;entryDy=0;" edge="1" parent="WIyWlLk6GJQsqaUBKTNV-1" source="n7_p6rtyUHWvbLUiibL5-4" target="UZ3TIBLTQS_dJuXPeL5W-8">
          <mxGeometry relative="1" as="geometry" />
        </mxCell>
        <mxCell id="n7_p6rtyUHWvbLUiibL5-4" value="&lt;span&gt;循环分配组里任务&lt;/span&gt;" style="rounded=1;whiteSpace=wrap;html=1;absoluteArcSize=1;arcSize=14;strokeWidth=2;" vertex="1" parent="WIyWlLk6GJQsqaUBKTNV-1">
          <mxGeometry x="300" y="420" width="100" height="50" as="geometry" />
        </mxCell>
      </root>
    </mxGraphModel>
  </diagram>
</mxfile>
